<svg xmlns="http://www.w3.org/2000/svg" viewBox="0 0 1200 760" role="img" aria-labelledby="title desc">
  <title id="title">Chess board hero illustration</title>
  <desc id="desc">A warm chessboard scene with abstract chess pieces and glowing accents.</desc>
  <defs>
    <linearGradient id="bg" x1="0" y1="0" x2="1200" y2="760" gradientUnits="userSpaceOnUse">
      <stop offset="0" stop-color="#102349"/>
      <stop offset="0.55" stop-color="#071325"/>
      <stop offset="1" stop-color="#050b16"/>
    </linearGradient>
    <linearGradient id="gold" x1="300" y1="120" x2="980" y2="650" gradientUnits="userSpaceOnUse">
      <stop offset="0" stop-color="#ffe8a4"/>
      <stop offset="1" stop-color="#c28b27"/>
    </linearGradient>
    <linearGradient id="blue" x1="250" y1="110" x2="1050" y2="600" gradientUnits="userSpaceOnUse">
      <stop offset="0" stop-color="#365b9b"/>
      <stop offset="1" stop-color="#12254f"/>
    </linearGradient>
    <filter id="soft" x="-20%" y="-20%" width="140%" height="140%">
      <feDropShadow dx="0" dy="30" stdDeviation="28" flood-color="#000000" flood-opacity="0.35"/>
    </filter>
    <pattern id="grid" width="96" height="96" patternUnits="userSpaceOnUse">
      <rect width="96" height="96" fill="#13244a"/>
      <rect width="48" height="48" fill="#f2c86e" opacity="0.88"/>
      <rect x="48" y="48" width="48" height="48" fill="#f2c86e" opacity="0.88"/>
    </pattern>
  </defs>
  <rect width="1200" height="760" rx="44" fill="url(#bg)"/>
  <circle cx="950" cy="120" r="210" fill="#f2c86e" opacity="0.1"/>
  <circle cx="190" cy="630" r="260" fill="#365b9b" opacity="0.14"/>
  <g transform="translate(210 250) rotate(-8 380 180)" filter="url(#soft)">
    <path d="M26 130 598 32c36-6 71 11 88 43l130 251c18 35-3 77-42 84l-577 105c-34 6-68-11-84-42L-19 219c-18-35 3-82 45-89Z" fill="#09152c"/>
    <path d="M38 151 600 55c23-4 46 7 57 28l118 228c12 22-2 49-27 54l-568 103c-22 4-44-7-54-27L8 210c-12-23 3-54 30-59Z" fill="url(#grid)" opacity="0.92"/>
    <path d="M38 151 600 55c23-4 46 7 57 28l118 228c12 22-2 49-27 54l-568 103c-22 4-44-7-54-27L8 210c-12-23 3-54 30-59Z" fill="none" stroke="#ffe8a4" stroke-width="8" opacity="0.85"/>
  </g>
  <g filter="url(#soft)">
    <path d="M805 437h166c14 0 25 11 25 25v24H780v-24c0-14 11-25 25-25Z" fill="url(#gold)"/>
    <path d="M837 214h102c8 58 20 116 37 174 4 14-6 28-20 28H820c-14 0-24-14-20-28 17-58 29-116 37-174Z" fill="url(#gold)"/>
    <path d="M844 177h88c14 0 26 11 26 26v16H818v-16c0-15 11-26 26-26Z" fill="url(#gold)"/>
    <circle cx="888" cy="144" r="42" fill="url(#gold)"/>
    <path d="M850 143h76M888 105v76" stroke="#071325" stroke-width="14" stroke-linecap="round" opacity="0.55"/>
  </g>
  <g filter="url(#soft)">
    <path d="M475 491h150c12 0 22 10 22 22v20H453v-20c0-12 10-22 22-22Z" fill="url(#blue)"/>
    <path d="M499 451h102c16 0 29 13 29 29v5H470v-5c0-16 13-29 29-29Z" fill="url(#blue)"/>
    <path d="M505 440c4-54 23-98 56-133-20-8-33-23-40-42-8-22-1-45 18-61 22-19 58-22 91-7 41 19 67 61 66 111 0 35-11 73-34 115l-10 17H505Z" fill="url(#blue)"/>
    <circle cx="579" cy="249" r="9" fill="#ffe8a4"/>
  </g>
  <g opacity="0.65" fill="none" stroke-linecap="round">
    <path d="M106 150c75 34 149 35 223 3" stroke="#f2c86e" stroke-width="6"/>
    <path d="M918 611c64 15 119 6 165-29" stroke="#365b9b" stroke-width="7"/>
    <path d="M166 602c42-28 86-36 133-23" stroke="#f2c86e" stroke-width="5"/>
  </g>
</svg>
